<?xml version="1.0" encoding="UTF-8" standalone="no"?><svg xmlns="http://www.w3.org/2000/svg" xmlns:xlink="http://www.w3.org/1999/xlink" contentScriptType="application/ecmascript" contentStyleType="text/css" height="462px" preserveAspectRatio="none" style="width:728px;height:462px;" version="1.1" viewBox="0 0 728 462" width="728px" zoomAndPan="magnify"><defs><filter height="300%" id="f1f852m66yjkyb" width="300%" x="-1" y="-1"><feGaussianBlur result="blurOut" stdDeviation="2.0"/><feColorMatrix in="blurOut" result="blurOut2" type="matrix" values="0 0 0 0 0 0 0 0 0 0 0 0 0 0 0 0 0 0 .4 0"/><feOffset dx="4.0" dy="4.0" in="blurOut2" result="blurOut3"/><feBlend in="SourceGraphic" in2="blurOut3" mode="normal"/></filter></defs><g><!--class User--><rect fill="#FEFECE" filter="url(#f1f852m66yjkyb)" height="112.0234" id="User" style="stroke: #A80036; stroke-width: 1.5;" width="61" x="311.5" y="8"/><ellipse cx="326.5" cy="24" fill="#ADD1B2" rx="11" ry="11" style="stroke: #A80036; stroke-width: 1.0;"/><path d="M329.4688,29.6406 Q328.8906,29.9375 328.25,30.0781 Q327.6094,30.2344 326.9063,30.2344 Q324.4063,30.2344 323.0781,28.5938 Q321.7656,26.9375 321.7656,23.8125 Q321.7656,20.6875 323.0781,19.0313 Q324.4063,17.375 326.9063,17.375 Q327.6094,17.375 328.25,17.5313 Q328.9063,17.6875 329.4688,17.9844 L329.4688,20.7031 Q328.8438,20.125 328.25,19.8594 Q327.6563,19.5781 327.0313,19.5781 Q325.6875,19.5781 325,20.6563 Q324.3125,21.7188 324.3125,23.8125 Q324.3125,25.9063 325,26.9844 Q325.6875,28.0469 327.0313,28.0469 Q327.6563,28.0469 328.25,27.7813 Q328.8438,27.5 329.4688,26.9219 L329.4688,29.6406 Z "/><text fill="#000000" font-family="sans-serif" font-size="12" lengthAdjust="spacingAndGlyphs" textLength="29" x="340.5" y="28.1543">User</text><line style="stroke: #A80036; stroke-width: 1.5;" x1="312.5" x2="371.5" y1="40" y2="40"/><text fill="#000000" font-family="sans-serif" font-size="11" lengthAdjust="spacingAndGlyphs" textLength="40" x="317.5" y="54.2104">gender</text><text fill="#000000" font-family="sans-serif" font-size="11" lengthAdjust="spacingAndGlyphs" textLength="31" x="317.5" y="67.0151">email</text><text fill="#000000" font-family="sans-serif" font-size="11" lengthAdjust="spacingAndGlyphs" textLength="35" x="317.5" y="79.8198">phone</text><text fill="#000000" font-family="sans-serif" font-size="11" lengthAdjust="spacingAndGlyphs" textLength="19" x="317.5" y="92.6245">cell</text><text fill="#000000" font-family="sans-serif" font-size="11" lengthAdjust="spacingAndGlyphs" textLength="18" x="317.5" y="105.4292">net</text><line style="stroke: #A80036; stroke-width: 1.5;" x1="312.5" x2="371.5" y1="112.0234" y2="112.0234"/><!--class Id--><rect fill="#FEFECE" filter="url(#f1f852m66yjkyb)" height="73.6094" id="Id" style="stroke: #A80036; stroke-width: 1.5;" width="44" x="6" y="212"/><ellipse cx="21.45" cy="228" fill="#ADD1B2" rx="11" ry="11" style="stroke: #A80036; stroke-width: 1.0;"/><path d="M24.4188,233.6406 Q23.8406,233.9375 23.2,234.0781 Q22.5594,234.2344 21.8563,234.2344 Q19.3563,234.2344 18.0281,232.5938 Q16.7156,230.9375 16.7156,227.8125 Q16.7156,224.6875 18.0281,223.0313 Q19.3563,221.375 21.8563,221.375 Q22.5594,221.375 23.2,221.5313 Q23.8563,221.6875 24.4188,221.9844 L24.4188,224.7031 Q23.7938,224.125 23.2,223.8594 Q22.6063,223.5781 21.9813,223.5781 Q20.6375,223.5781 19.95,224.6563 Q19.2625,225.7188 19.2625,227.8125 Q19.2625,229.9063 19.95,230.9844 Q20.6375,232.0469 21.9813,232.0469 Q22.6063,232.0469 23.2,231.7813 Q23.7938,231.5 24.4188,230.9219 L24.4188,233.6406 Z "/><text fill="#000000" font-family="sans-serif" font-size="12" lengthAdjust="spacingAndGlyphs" textLength="11" x="35.55" y="232.1543">Id</text><line style="stroke: #A80036; stroke-width: 1.5;" x1="7" x2="49" y1="244" y2="244"/><text fill="#000000" font-family="sans-serif" font-size="11" lengthAdjust="spacingAndGlyphs" textLength="32" x="12" y="258.2104">name</text><text fill="#000000" font-family="sans-serif" font-size="11" lengthAdjust="spacingAndGlyphs" textLength="30" x="12" y="271.0151">value</text><line style="stroke: #A80036; stroke-width: 1.5;" x1="7" x2="49" y1="277.6094" y2="277.6094"/><!--class Picture--><rect fill="#FEFECE" filter="url(#f1f852m66yjkyb)" height="86.4141" id="Picture" style="stroke: #A80036; stroke-width: 1.5;" width="76" x="85" y="206"/><ellipse cx="100" cy="222" fill="#ADD1B2" rx="11" ry="11" style="stroke: #A80036; stroke-width: 1.0;"/><path d="M102.9688,227.6406 Q102.3906,227.9375 101.75,228.0781 Q101.1094,228.2344 100.4063,228.2344 Q97.9063,228.2344 96.5781,226.5938 Q95.2656,224.9375 95.2656,221.8125 Q95.2656,218.6875 96.5781,217.0313 Q97.9063,215.375 100.4063,215.375 Q101.1094,215.375 101.75,215.5313 Q102.4063,215.6875 102.9688,215.9844 L102.9688,218.7031 Q102.3438,218.125 101.75,217.8594 Q101.1563,217.5781 100.5313,217.5781 Q99.1875,217.5781 98.5,218.6563 Q97.8125,219.7188 97.8125,221.8125 Q97.8125,223.9063 98.5,224.9844 Q99.1875,226.0469 100.5313,226.0469 Q101.1563,226.0469 101.75,225.7813 Q102.3438,225.5 102.9688,224.9219 L102.9688,227.6406 Z "/><text fill="#000000" font-family="sans-serif" font-size="12" lengthAdjust="spacingAndGlyphs" textLength="44" x="114" y="226.1543">Picture</text><line style="stroke: #A80036; stroke-width: 1.5;" x1="86" x2="160" y1="238" y2="238"/><text fill="#000000" font-family="sans-serif" font-size="11" lengthAdjust="spacingAndGlyphs" textLength="46" x="91" y="252.2104">medium</text><text fill="#000000" font-family="sans-serif" font-size="11" lengthAdjust="spacingAndGlyphs" textLength="29" x="91" y="265.0151">large</text><text fill="#000000" font-family="sans-serif" font-size="11" lengthAdjust="spacingAndGlyphs" textLength="56" x="91" y="277.8198">thumbnail</text><line style="stroke: #A80036; stroke-width: 1.5;" x1="86" x2="160" y1="284.4141" y2="284.4141"/><!--class Name--><rect fill="#FEFECE" filter="url(#f1f852m66yjkyb)" height="86.4141" id="Name" style="stroke: #A80036; stroke-width: 1.5;" width="68" x="196" y="206"/><ellipse cx="211" cy="222" fill="#ADD1B2" rx="11" ry="11" style="stroke: #A80036; stroke-width: 1.0;"/><path d="M213.9688,227.6406 Q213.3906,227.9375 212.75,228.0781 Q212.1094,228.2344 211.4063,228.2344 Q208.9063,228.2344 207.5781,226.5938 Q206.2656,224.9375 206.2656,221.8125 Q206.2656,218.6875 207.5781,217.0313 Q208.9063,215.375 211.4063,215.375 Q212.1094,215.375 212.75,215.5313 Q213.4063,215.6875 213.9688,215.9844 L213.9688,218.7031 Q213.3438,218.125 212.75,217.8594 Q212.1563,217.5781 211.5313,217.5781 Q210.1875,217.5781 209.5,218.6563 Q208.8125,219.7188 208.8125,221.8125 Q208.8125,223.9063 209.5,224.9844 Q210.1875,226.0469 211.5313,226.0469 Q212.1563,226.0469 212.75,225.7813 Q213.3438,225.5 213.9688,224.9219 L213.9688,227.6406 Z "/><text fill="#000000" font-family="sans-serif" font-size="12" lengthAdjust="spacingAndGlyphs" textLength="36" x="225" y="226.1543">Name</text><line style="stroke: #A80036; stroke-width: 1.5;" x1="197" x2="263" y1="238" y2="238"/><text fill="#000000" font-family="sans-serif" font-size="11" lengthAdjust="spacingAndGlyphs" textLength="21" x="202" y="252.2104">title</text><text fill="#000000" font-family="sans-serif" font-size="11" lengthAdjust="spacingAndGlyphs" textLength="23" x="202" y="265.0151">first</text><text fill="#000000" font-family="sans-serif" font-size="11" lengthAdjust="spacingAndGlyphs" textLength="21" x="202" y="277.8198">last</text><line style="stroke: #A80036; stroke-width: 1.5;" x1="197" x2="263" y1="284.4141" y2="284.4141"/><!--class Location--><rect fill="#FEFECE" filter="url(#f1f852m66yjkyb)" height="99.2188" id="Location" style="stroke: #A80036; stroke-width: 1.5;" width="85" x="299.5" y="199.5"/><ellipse cx="314.5" cy="215.5" fill="#ADD1B2" rx="11" ry="11" style="stroke: #A80036; stroke-width: 1.0;"/><path d="M317.4688,221.1406 Q316.8906,221.4375 316.25,221.5781 Q315.6094,221.7344 314.9063,221.7344 Q312.4063,221.7344 311.0781,220.0938 Q309.7656,218.4375 309.7656,215.3125 Q309.7656,212.1875 311.0781,210.5313 Q312.4063,208.875 314.9063,208.875 Q315.6094,208.875 316.25,209.0313 Q316.9063,209.1875 317.4688,209.4844 L317.4688,212.2031 Q316.8438,211.625 316.25,211.3594 Q315.6563,211.0781 315.0313,211.0781 Q313.6875,211.0781 313,212.1563 Q312.3125,213.2188 312.3125,215.3125 Q312.3125,217.4063 313,218.4844 Q313.6875,219.5469 315.0313,219.5469 Q315.6563,219.5469 316.25,219.2813 Q316.8438,219 317.4688,218.4219 L317.4688,221.1406 Z "/><text fill="#000000" font-family="sans-serif" font-size="12" lengthAdjust="spacingAndGlyphs" textLength="53" x="328.5" y="219.6543">Location</text><line style="stroke: #A80036; stroke-width: 1.5;" x1="300.5" x2="383.5" y1="231.5" y2="231.5"/><text fill="#000000" font-family="sans-serif" font-size="11" lengthAdjust="spacingAndGlyphs" textLength="19" x="305.5" y="245.7104">city</text><text fill="#000000" font-family="sans-serif" font-size="11" lengthAdjust="spacingAndGlyphs" textLength="29" x="305.5" y="258.5151">state</text><text fill="#000000" font-family="sans-serif" font-size="11" lengthAdjust="spacingAndGlyphs" textLength="52" x="305.5" y="271.3198">postcode</text><text fill="#000000" font-family="sans-serif" font-size="11" lengthAdjust="spacingAndGlyphs" textLength="42" x="305.5" y="284.1245">country</text><line style="stroke: #A80036; stroke-width: 1.5;" x1="300.5" x2="383.5" y1="290.7188" y2="290.7188"/><!--class Street--><rect fill="#FEFECE" filter="url(#f1f852m66yjkyb)" height="73.6094" id="Street" style="stroke: #A80036; stroke-width: 1.5;" width="71" x="181.5" y="378"/><ellipse cx="196.5" cy="394" fill="#ADD1B2" rx="11" ry="11" style="stroke: #A80036; stroke-width: 1.0;"/><path d="M199.4688,399.6406 Q198.8906,399.9375 198.25,400.0781 Q197.6094,400.2344 196.9063,400.2344 Q194.4063,400.2344 193.0781,398.5938 Q191.7656,396.9375 191.7656,393.8125 Q191.7656,390.6875 193.0781,389.0313 Q194.4063,387.375 196.9063,387.375 Q197.6094,387.375 198.25,387.5313 Q198.9063,387.6875 199.4688,387.9844 L199.4688,390.7031 Q198.8438,390.125 198.25,389.8594 Q197.6563,389.5781 197.0313,389.5781 Q195.6875,389.5781 195,390.6563 Q194.3125,391.7188 194.3125,393.8125 Q194.3125,395.9063 195,396.9844 Q195.6875,398.0469 197.0313,398.0469 Q197.6563,398.0469 198.25,397.7813 Q198.8438,397.5 199.4688,396.9219 L199.4688,399.6406 Z "/><text fill="#000000" font-family="sans-serif" font-size="12" lengthAdjust="spacingAndGlyphs" textLength="39" x="210.5" y="398.1543">Street</text><line style="stroke: #A80036; stroke-width: 1.5;" x1="182.5" x2="251.5" y1="410" y2="410"/><text fill="#000000" font-family="sans-serif" font-size="11" lengthAdjust="spacingAndGlyphs" textLength="32" x="187.5" y="424.2104">name</text><text fill="#000000" font-family="sans-serif" font-size="11" lengthAdjust="spacingAndGlyphs" textLength="44" x="187.5" y="437.0151">number</text><line style="stroke: #A80036; stroke-width: 1.5;" x1="182.5" x2="251.5" y1="443.6094" y2="443.6094"/><!--class Coordinates--><rect fill="#FEFECE" filter="url(#f1f852m66yjkyb)" height="73.6094" id="Coordinates" style="stroke: #A80036; stroke-width: 1.5;" width="108" x="288" y="378"/><ellipse cx="303" cy="394" fill="#ADD1B2" rx="11" ry="11" style="stroke: #A80036; stroke-width: 1.0;"/><path d="M305.9688,399.6406 Q305.3906,399.9375 304.75,400.0781 Q304.1094,400.2344 303.4063,400.2344 Q300.9063,400.2344 299.5781,398.5938 Q298.2656,396.9375 298.2656,393.8125 Q298.2656,390.6875 299.5781,389.0313 Q300.9063,387.375 303.4063,387.375 Q304.1094,387.375 304.75,387.5313 Q305.4063,387.6875 305.9688,387.9844 L305.9688,390.7031 Q305.3438,390.125 304.75,389.8594 Q304.1563,389.5781 303.5313,389.5781 Q302.1875,389.5781 301.5,390.6563 Q300.8125,391.7188 300.8125,393.8125 Q300.8125,395.9063 301.5,396.9844 Q302.1875,398.0469 303.5313,398.0469 Q304.1563,398.0469 304.75,397.7813 Q305.3438,397.5 305.9688,396.9219 L305.9688,399.6406 Z "/><text fill="#000000" font-family="sans-serif" font-size="12" lengthAdjust="spacingAndGlyphs" textLength="76" x="317" y="398.1543">Coordinates</text><line style="stroke: #A80036; stroke-width: 1.5;" x1="289" x2="395" y1="410" y2="410"/><text fill="#000000" font-family="sans-serif" font-size="11" lengthAdjust="spacingAndGlyphs" textLength="42" x="294" y="424.2104">latitude</text><text fill="#000000" font-family="sans-serif" font-size="11" lengthAdjust="spacingAndGlyphs" textLength="45" x="294" y="437.0151">lonitude</text><line style="stroke: #A80036; stroke-width: 1.5;" x1="289" x2="395" y1="443.6094" y2="443.6094"/><!--class Timezome--><rect fill="#FEFECE" filter="url(#f1f852m66yjkyb)" height="73.6094" id="Timezome" style="stroke: #A80036; stroke-width: 1.5;" width="93" x="431.5" y="378"/><ellipse cx="446.5" cy="394" fill="#ADD1B2" rx="11" ry="11" style="stroke: #A80036; stroke-width: 1.0;"/><path d="M449.4688,399.6406 Q448.8906,399.9375 448.25,400.0781 Q447.6094,400.2344 446.9063,400.2344 Q444.4063,400.2344 443.0781,398.5938 Q441.7656,396.9375 441.7656,393.8125 Q441.7656,390.6875 443.0781,389.0313 Q444.4063,387.375 446.9063,387.375 Q447.6094,387.375 448.25,387.5313 Q448.9063,387.6875 449.4688,387.9844 L449.4688,390.7031 Q448.8438,390.125 448.25,389.8594 Q447.6563,389.5781 447.0313,389.5781 Q445.6875,389.5781 445,390.6563 Q444.3125,391.7188 444.3125,393.8125 Q444.3125,395.9063 445,396.9844 Q445.6875,398.0469 447.0313,398.0469 Q447.6563,398.0469 448.25,397.7813 Q448.8438,397.5 449.4688,396.9219 L449.4688,399.6406 Z "/><text fill="#000000" font-family="sans-serif" font-size="12" lengthAdjust="spacingAndGlyphs" textLength="61" x="460.5" y="398.1543">Timezome</text><line style="stroke: #A80036; stroke-width: 1.5;" x1="432.5" x2="523.5" y1="410" y2="410"/><text fill="#000000" font-family="sans-serif" font-size="11" lengthAdjust="spacingAndGlyphs" textLength="33" x="437.5" y="424.2104">offset</text><text fill="#000000" font-family="sans-serif" font-size="11" lengthAdjust="spacingAndGlyphs" textLength="63" x="437.5" y="437.0151">description</text><line style="stroke: #A80036; stroke-width: 1.5;" x1="432.5" x2="523.5" y1="443.6094" y2="443.6094"/><!--class DoB--><rect fill="#FEFECE" filter="url(#f1f852m66yjkyb)" height="73.6094" id="DoB" style="stroke: #A80036; stroke-width: 1.5;" width="57" x="419.5" y="212"/><ellipse cx="434.5" cy="228" fill="#ADD1B2" rx="11" ry="11" style="stroke: #A80036; stroke-width: 1.0;"/><path d="M437.4688,233.6406 Q436.8906,233.9375 436.25,234.0781 Q435.6094,234.2344 434.9063,234.2344 Q432.4063,234.2344 431.0781,232.5938 Q429.7656,230.9375 429.7656,227.8125 Q429.7656,224.6875 431.0781,223.0313 Q432.4063,221.375 434.9063,221.375 Q435.6094,221.375 436.25,221.5313 Q436.9063,221.6875 437.4688,221.9844 L437.4688,224.7031 Q436.8438,224.125 436.25,223.8594 Q435.6563,223.5781 435.0313,223.5781 Q433.6875,223.5781 433,224.6563 Q432.3125,225.7188 432.3125,227.8125 Q432.3125,229.9063 433,230.9844 Q433.6875,232.0469 435.0313,232.0469 Q435.6563,232.0469 436.25,231.7813 Q436.8438,231.5 437.4688,230.9219 L437.4688,233.6406 Z "/><text fill="#000000" font-family="sans-serif" font-size="12" lengthAdjust="spacingAndGlyphs" textLength="25" x="448.5" y="232.1543">DoB</text><line style="stroke: #A80036; stroke-width: 1.5;" x1="420.5" x2="475.5" y1="244" y2="244"/><text fill="#000000" font-family="sans-serif" font-size="11" lengthAdjust="spacingAndGlyphs" textLength="21" x="425.5" y="258.2104">age</text><text fill="#000000" font-family="sans-serif" font-size="11" lengthAdjust="spacingAndGlyphs" textLength="25" x="425.5" y="271.0151">date</text><line style="stroke: #A80036; stroke-width: 1.5;" x1="420.5" x2="475.5" y1="277.6094" y2="277.6094"/><!--class Registered--><rect fill="#FEFECE" filter="url(#f1f852m66yjkyb)" height="73.6094" id="Registered" style="stroke: #A80036; stroke-width: 1.5;" width="100" x="512" y="212"/><ellipse cx="527" cy="228" fill="#ADD1B2" rx="11" ry="11" style="stroke: #A80036; stroke-width: 1.0;"/><path d="M529.9688,233.6406 Q529.3906,233.9375 528.75,234.0781 Q528.1094,234.2344 527.4063,234.2344 Q524.9063,234.2344 523.5781,232.5938 Q522.2656,230.9375 522.2656,227.8125 Q522.2656,224.6875 523.5781,223.0313 Q524.9063,221.375 527.4063,221.375 Q528.1094,221.375 528.75,221.5313 Q529.4063,221.6875 529.9688,221.9844 L529.9688,224.7031 Q529.3438,224.125 528.75,223.8594 Q528.1563,223.5781 527.5313,223.5781 Q526.1875,223.5781 525.5,224.6563 Q524.8125,225.7188 524.8125,227.8125 Q524.8125,229.9063 525.5,230.9844 Q526.1875,232.0469 527.5313,232.0469 Q528.1563,232.0469 528.75,231.7813 Q529.3438,231.5 529.9688,230.9219 L529.9688,233.6406 Z "/><text fill="#000000" font-family="sans-serif" font-size="12" lengthAdjust="spacingAndGlyphs" textLength="68" x="541" y="232.1543">Registered</text><line style="stroke: #A80036; stroke-width: 1.5;" x1="513" x2="611" y1="244" y2="244"/><text fill="#000000" font-family="sans-serif" font-size="11" lengthAdjust="spacingAndGlyphs" textLength="21" x="518" y="258.2104">age</text><text fill="#000000" font-family="sans-serif" font-size="11" lengthAdjust="spacingAndGlyphs" textLength="25" x="518" y="271.0151">date</text><line style="stroke: #A80036; stroke-width: 1.5;" x1="513" x2="611" y1="277.6094" y2="277.6094"/><!--class Login--><rect fill="#FEFECE" filter="url(#f1f852m66yjkyb)" height="137.6328" id="Login" style="stroke: #A80036; stroke-width: 1.5;" width="70" x="647" y="180"/><ellipse cx="664.25" cy="196" fill="#ADD1B2" rx="11" ry="11" style="stroke: #A80036; stroke-width: 1.0;"/><path d="M667.2188,201.6406 Q666.6406,201.9375 666,202.0781 Q665.3594,202.2344 664.6563,202.2344 Q662.1563,202.2344 660.8281,200.5938 Q659.5156,198.9375 659.5156,195.8125 Q659.5156,192.6875 660.8281,191.0313 Q662.1563,189.375 664.6563,189.375 Q665.3594,189.375 666,189.5313 Q666.6563,189.6875 667.2188,189.9844 L667.2188,192.7031 Q666.5938,192.125 666,191.8594 Q665.4063,191.5781 664.7813,191.5781 Q663.4375,191.5781 662.75,192.6563 Q662.0625,193.7188 662.0625,195.8125 Q662.0625,197.9063 662.75,198.9844 Q663.4375,200.0469 664.7813,200.0469 Q665.4063,200.0469 666,199.7813 Q666.5938,199.5 667.2188,198.9219 L667.2188,201.6406 Z "/><text fill="#000000" font-family="sans-serif" font-size="12" lengthAdjust="spacingAndGlyphs" textLength="33" x="678.75" y="200.1543">Login</text><line style="stroke: #A80036; stroke-width: 1.5;" x1="648" x2="716" y1="212" y2="212"/><text fill="#000000" font-family="sans-serif" font-size="11" lengthAdjust="spacingAndGlyphs" textLength="24" x="653" y="226.2104">uuid</text><text fill="#000000" font-family="sans-serif" font-size="11" lengthAdjust="spacingAndGlyphs" textLength="58" x="653" y="239.0151">username</text><text fill="#000000" font-family="sans-serif" font-size="11" lengthAdjust="spacingAndGlyphs" textLength="56" x="653" y="251.8198">password</text><text fill="#000000" font-family="sans-serif" font-size="11" lengthAdjust="spacingAndGlyphs" textLength="21" x="653" y="264.6245">salt</text><text fill="#000000" font-family="sans-serif" font-size="11" lengthAdjust="spacingAndGlyphs" textLength="25" x="653" y="277.4292">md5</text><text fill="#000000" font-family="sans-serif" font-size="11" lengthAdjust="spacingAndGlyphs" textLength="28" x="653" y="290.2339">sha1</text><text fill="#000000" font-family="sans-serif" font-size="11" lengthAdjust="spacingAndGlyphs" textLength="42" x="653" y="303.0386">sha256</text><line style="stroke: #A80036; stroke-width: 1.5;" x1="648" x2="716" y1="309.6328" y2="309.6328"/><!--link User to Id--><path d="M311.2475,70.0962 C256.3856,82.3341 140.5107,114.5101 67,180 C57.2394,188.6956 49.3523,200.4395 43.2923,211.7718 " fill="none" id="User-Id" style="stroke: #A80036; stroke-width: 1.0;"/><!--link User to Name--><path d="M311.3955,114.5521 C294.1025,143.1164 272.7104,178.4516 256.1972,205.7279 " fill="none" id="User-Name" style="stroke: #A80036; stroke-width: 1.0;"/><!--link User to Location--><path d="M342,120.0081 C342,145.319 342,174.9712 342,199.4595 " fill="none" id="User-Location" style="stroke: #A80036; stroke-width: 1.0;"/><!--link Location to Street--><path d="M304.4959,298.8055 C285.367,324.2086 262.498,354.5787 244.9382,377.8981 " fill="none" id="Location-Street" style="stroke: #A80036; stroke-width: 1.0;"/><!--link Location to Coordinates--><path d="M342,298.8055 C342,324.2086 342,354.5787 342,377.8981 " fill="none" id="Location-Coordinates" style="stroke: #A80036; stroke-width: 1.0;"/><!--link Location to Timezome--><path d="M382.8045,298.8055 C403.6167,324.2086 428.4982,354.5787 447.6033,377.8981 " fill="none" id="Location-Timezome" style="stroke: #A80036; stroke-width: 1.0;"/><!--link User to DoB--><path d="M372.6596,117.5097 C389.9634,147.7097 411.156,184.6969 426.6519,211.7416 " fill="none" id="User-DoB" style="stroke: #A80036; stroke-width: 1.0;"/><!--link User to Registered--><path d="M372.6941,85.4703 C404.119,107.896 453.9004,144.6676 494,180 C505.231,189.8958 516.8718,201.2506 527.2799,211.8539 " fill="none" id="User-Registered" style="stroke: #A80036; stroke-width: 1.0;"/><!--link User to Picture--><path d="M311.3615,82.0035 C276.8939,103.0567 220.2194,140.135 178,180 C169.7576,187.7828 161.6847,196.8316 154.372,205.7642 " fill="none" id="User-Picture" style="stroke: #A80036; stroke-width: 1.0;"/><!--link User to Login--><path d="M372.907,70.6278 C428.8157,83.8007 548.4988,117.5343 630,180 C635.9527,184.5624 641.5638,189.9747 646.7396,195.731 " fill="none" id="User-Login" style="stroke: #A80036; stroke-width: 1.0;"/><!--
@startuml

class User {
    gender
    email
    phone
    cell
    net
}

User - - Id

class Picture {
    medium
    large
    thumbnail
}

class Name {
    title
    first
    last
}

User - - Name

class Location {
    city
    state
    postcode
    country
}

User - - Location

class Street {
    name
    number
}

Location - - Street

class Coordinates {
    latitude
    lonitude
}

Location - - Coordinates

class Timezome {
    offset
    description
}

Location - - Timezome

class DoB {
    age
    date
}

User - - DoB

class Registered {
    age
    date
}

User - - Registered

class Id {
    name
    value
}

User - -  Picture

class Login {
    uuid
    username
    password
    salt
    md5
    sha1
    sha256
}

User - - Login

@enduml

PlantUML version 1.2019.09(Mon Aug 26 18:19:51 CEST 2019)
(GPL source distribution)
Java Runtime: OpenJDK Runtime Environment
JVM: OpenJDK 64-Bit Server VM
Java Version: 11.0.4+11-post-Ubuntu-1ubuntu218.04.3
Operating System: Linux
OS Version: 4.15.0-65-generic
Default Encoding: UTF-8
Language: en
Country: US
--></g></svg>