<?xml version="1.0" encoding="UTF-8" standalone="no"?><svg xmlns="http://www.w3.org/2000/svg" xmlns:xlink="http://www.w3.org/1999/xlink" contentScriptType="application/ecmascript" contentStyleType="text/css" height="462px" preserveAspectRatio="none" style="width:311px;height:462px;" version="1.1" viewBox="0 0 311 462" width="311px" zoomAndPan="magnify"><defs><filter height="300%" id="ffk6pf68bzy8c" width="300%" x="-1" y="-1"><feGaussianBlur result="blurOut" stdDeviation="2.0"/><feColorMatrix in="blurOut" result="blurOut2" type="matrix" values="0 0 0 0 0 0 0 0 0 0 0 0 0 0 0 0 0 0 .4 0"/><feOffset dx="4.0" dy="4.0" in="blurOut2" result="blurOut3"/><feBlend in="SourceGraphic" in2="blurOut3" mode="normal"/></filter></defs><g><!--class User--><rect fill="#FEFECE" filter="url(#ffk6pf68bzy8c)" height="137.6328" id="User" style="stroke: #A80036; stroke-width: 1.5;" width="61" x="121.5" y="8"/><ellipse cx="136.5" cy="24" fill="#ADD1B2" rx="11" ry="11" style="stroke: #A80036; stroke-width: 1.0;"/><path d="M139.4688,29.6406 Q138.8906,29.9375 138.25,30.0781 Q137.6094,30.2344 136.9063,30.2344 Q134.4063,30.2344 133.0781,28.5938 Q131.7656,26.9375 131.7656,23.8125 Q131.7656,20.6875 133.0781,19.0313 Q134.4063,17.375 136.9063,17.375 Q137.6094,17.375 138.25,17.5313 Q138.9063,17.6875 139.4688,17.9844 L139.4688,20.7031 Q138.8438,20.125 138.25,19.8594 Q137.6563,19.5781 137.0313,19.5781 Q135.6875,19.5781 135,20.6563 Q134.3125,21.7188 134.3125,23.8125 Q134.3125,25.9063 135,26.9844 Q135.6875,28.0469 137.0313,28.0469 Q137.6563,28.0469 138.25,27.7813 Q138.8438,27.5 139.4688,26.9219 L139.4688,29.6406 Z "/><text fill="#000000" font-family="sans-serif" font-size="12" lengthAdjust="spacingAndGlyphs" textLength="29" x="150.5" y="28.1543">User</text><line style="stroke: #A80036; stroke-width: 1.5;" x1="122.5" x2="181.5" y1="40" y2="40"/><text fill="#000000" font-family="sans-serif" font-size="11" lengthAdjust="spacingAndGlyphs" textLength="40" x="127.5" y="54.2104">gender</text><text fill="#000000" font-family="sans-serif" font-size="11" lengthAdjust="spacingAndGlyphs" textLength="32" x="127.5" y="67.0151">name</text><text fill="#000000" font-family="sans-serif" font-size="11" lengthAdjust="spacingAndGlyphs" textLength="44" x="127.5" y="79.8198">location</text><text fill="#000000" font-family="sans-serif" font-size="11" lengthAdjust="spacingAndGlyphs" textLength="31" x="127.5" y="92.6245">email</text><text fill="#000000" font-family="sans-serif" font-size="11" lengthAdjust="spacingAndGlyphs" textLength="27" x="127.5" y="105.4292">login</text><text fill="#000000" font-family="sans-serif" font-size="11" lengthAdjust="spacingAndGlyphs" textLength="35" x="127.5" y="118.2339">phone</text><text fill="#000000" font-family="sans-serif" font-size="11" lengthAdjust="spacingAndGlyphs" textLength="36" x="127.5" y="131.0386">avatar</text><line style="stroke: #A80036; stroke-width: 1.5;" x1="122.5" x2="181.5" y1="137.6328" y2="137.6328"/><!--class Name--><rect fill="#FEFECE" filter="url(#ffk6pf68bzy8c)" height="86.4141" id="Name" style="stroke: #A80036; stroke-width: 1.5;" width="68" x="6" y="219"/><ellipse cx="21" cy="235" fill="#ADD1B2" rx="11" ry="11" style="stroke: #A80036; stroke-width: 1.0;"/><path d="M23.9688,240.6406 Q23.3906,240.9375 22.75,241.0781 Q22.1094,241.2344 21.4063,241.2344 Q18.9063,241.2344 17.5781,239.5938 Q16.2656,237.9375 16.2656,234.8125 Q16.2656,231.6875 17.5781,230.0313 Q18.9063,228.375 21.4063,228.375 Q22.1094,228.375 22.75,228.5313 Q23.4063,228.6875 23.9688,228.9844 L23.9688,231.7031 Q23.3438,231.125 22.75,230.8594 Q22.1563,230.5781 21.5313,230.5781 Q20.1875,230.5781 19.5,231.6563 Q18.8125,232.7188 18.8125,234.8125 Q18.8125,236.9063 19.5,237.9844 Q20.1875,239.0469 21.5313,239.0469 Q22.1563,239.0469 22.75,238.7813 Q23.3438,238.5 23.9688,237.9219 L23.9688,240.6406 Z "/><text fill="#000000" font-family="sans-serif" font-size="12" lengthAdjust="spacingAndGlyphs" textLength="36" x="35" y="239.1543">Name</text><line style="stroke: #A80036; stroke-width: 1.5;" x1="7" x2="73" y1="251" y2="251"/><text fill="#000000" font-family="sans-serif" font-size="11" lengthAdjust="spacingAndGlyphs" textLength="21" x="12" y="265.2104">title</text><text fill="#000000" font-family="sans-serif" font-size="11" lengthAdjust="spacingAndGlyphs" textLength="23" x="12" y="278.0151">first</text><text fill="#000000" font-family="sans-serif" font-size="11" lengthAdjust="spacingAndGlyphs" textLength="21" x="12" y="290.8198">last</text><line style="stroke: #A80036; stroke-width: 1.5;" x1="7" x2="73" y1="297.4141" y2="297.4141"/><!--class Location--><rect fill="#FEFECE" filter="url(#ffk6pf68bzy8c)" height="112.0234" id="Location" style="stroke: #A80036; stroke-width: 1.5;" width="85" x="109.5" y="206"/><ellipse cx="124.5" cy="222" fill="#ADD1B2" rx="11" ry="11" style="stroke: #A80036; stroke-width: 1.0;"/><path d="M127.4688,227.6406 Q126.8906,227.9375 126.25,228.0781 Q125.6094,228.2344 124.9063,228.2344 Q122.4063,228.2344 121.0781,226.5938 Q119.7656,224.9375 119.7656,221.8125 Q119.7656,218.6875 121.0781,217.0313 Q122.4063,215.375 124.9063,215.375 Q125.6094,215.375 126.25,215.5313 Q126.9063,215.6875 127.4688,215.9844 L127.4688,218.7031 Q126.8438,218.125 126.25,217.8594 Q125.6563,217.5781 125.0313,217.5781 Q123.6875,217.5781 123,218.6563 Q122.3125,219.7188 122.3125,221.8125 Q122.3125,223.9063 123,224.9844 Q123.6875,226.0469 125.0313,226.0469 Q125.6563,226.0469 126.25,225.7813 Q126.8438,225.5 127.4688,224.9219 L127.4688,227.6406 Z "/><text fill="#000000" font-family="sans-serif" font-size="12" lengthAdjust="spacingAndGlyphs" textLength="53" x="138.5" y="226.1543">Location</text><line style="stroke: #A80036; stroke-width: 1.5;" x1="110.5" x2="193.5" y1="238" y2="238"/><text fill="#000000" font-family="sans-serif" font-size="11" lengthAdjust="spacingAndGlyphs" textLength="34" x="115.5" y="252.2104">street</text><text fill="#000000" font-family="sans-serif" font-size="11" lengthAdjust="spacingAndGlyphs" textLength="19" x="115.5" y="265.0151">city</text><text fill="#000000" font-family="sans-serif" font-size="11" lengthAdjust="spacingAndGlyphs" textLength="29" x="115.5" y="277.8198">state</text><text fill="#000000" font-family="sans-serif" font-size="11" lengthAdjust="spacingAndGlyphs" textLength="52" x="115.5" y="290.6245">postcode</text><text fill="#000000" font-family="sans-serif" font-size="11" lengthAdjust="spacingAndGlyphs" textLength="42" x="115.5" y="303.4292">country</text><line style="stroke: #A80036; stroke-width: 1.5;" x1="110.5" x2="193.5" y1="310.0234" y2="310.0234"/><!--class Street--><rect fill="#FEFECE" filter="url(#ffk6pf68bzy8c)" height="73.6094" id="Street" style="stroke: #A80036; stroke-width: 1.5;" width="71" x="116.5" y="378"/><ellipse cx="131.5" cy="394" fill="#ADD1B2" rx="11" ry="11" style="stroke: #A80036; stroke-width: 1.0;"/><path d="M134.4688,399.6406 Q133.8906,399.9375 133.25,400.0781 Q132.6094,400.2344 131.9063,400.2344 Q129.4063,400.2344 128.0781,398.5938 Q126.7656,396.9375 126.7656,393.8125 Q126.7656,390.6875 128.0781,389.0313 Q129.4063,387.375 131.9063,387.375 Q132.6094,387.375 133.25,387.5313 Q133.9063,387.6875 134.4688,387.9844 L134.4688,390.7031 Q133.8438,390.125 133.25,389.8594 Q132.6563,389.5781 132.0313,389.5781 Q130.6875,389.5781 130,390.6563 Q129.3125,391.7188 129.3125,393.8125 Q129.3125,395.9063 130,396.9844 Q130.6875,398.0469 132.0313,398.0469 Q132.6563,398.0469 133.25,397.7813 Q133.8438,397.5 134.4688,396.9219 L134.4688,399.6406 Z "/><text fill="#000000" font-family="sans-serif" font-size="12" lengthAdjust="spacingAndGlyphs" textLength="39" x="145.5" y="398.1543">Street</text><line style="stroke: #A80036; stroke-width: 1.5;" x1="117.5" x2="186.5" y1="410" y2="410"/><text fill="#000000" font-family="sans-serif" font-size="11" lengthAdjust="spacingAndGlyphs" textLength="32" x="122.5" y="424.2104">name</text><text fill="#000000" font-family="sans-serif" font-size="11" lengthAdjust="spacingAndGlyphs" textLength="44" x="122.5" y="437.0151">number</text><line style="stroke: #A80036; stroke-width: 1.5;" x1="117.5" x2="186.5" y1="443.6094" y2="443.6094"/><!--class Login--><rect fill="#FEFECE" filter="url(#ffk6pf68bzy8c)" height="73.6094" id="Login" style="stroke: #A80036; stroke-width: 1.5;" width="70" x="230" y="225"/><ellipse cx="247.25" cy="241" fill="#ADD1B2" rx="11" ry="11" style="stroke: #A80036; stroke-width: 1.0;"/><path d="M250.2188,246.6406 Q249.6406,246.9375 249,247.0781 Q248.3594,247.2344 247.6563,247.2344 Q245.1563,247.2344 243.8281,245.5938 Q242.5156,243.9375 242.5156,240.8125 Q242.5156,237.6875 243.8281,236.0313 Q245.1563,234.375 247.6563,234.375 Q248.3594,234.375 249,234.5313 Q249.6563,234.6875 250.2188,234.9844 L250.2188,237.7031 Q249.5938,237.125 249,236.8594 Q248.4063,236.5781 247.7813,236.5781 Q246.4375,236.5781 245.75,237.6563 Q245.0625,238.7188 245.0625,240.8125 Q245.0625,242.9063 245.75,243.9844 Q246.4375,245.0469 247.7813,245.0469 Q248.4063,245.0469 249,244.7813 Q249.5938,244.5 250.2188,243.9219 L250.2188,246.6406 Z "/><text fill="#000000" font-family="sans-serif" font-size="12" lengthAdjust="spacingAndGlyphs" textLength="33" x="261.75" y="245.1543">Login</text><line style="stroke: #A80036; stroke-width: 1.5;" x1="231" x2="299" y1="257" y2="257"/><text fill="#000000" font-family="sans-serif" font-size="11" lengthAdjust="spacingAndGlyphs" textLength="58" x="236" y="271.2104">username</text><text fill="#000000" font-family="sans-serif" font-size="11" lengthAdjust="spacingAndGlyphs" textLength="56" x="236" y="284.0151">password</text><line style="stroke: #A80036; stroke-width: 1.5;" x1="231" x2="299" y1="290.6094" y2="290.6094"/><!--link User to Name--><path d="M121.3955,127.5521 C104.1025,156.1164 82.7104,191.4516 66.1972,218.7279 " fill="none" id="User-Name" style="stroke: #A80036; stroke-width: 1.0;"/><!--link User to Location--><path d="M152,146.1503 C152,165.8552 152,187.0728 152,205.8976 " fill="none" id="User-Location" style="stroke: #A80036; stroke-width: 1.0;"/><!--link Location to Street--><path d="M152,318.1028 C152,338.0596 152,360.0143 152,377.9721 " fill="none" id="Location-Street" style="stroke: #A80036; stroke-width: 1.0;"/><!--link User to Login--><path d="M182.5794,127.0637 C201.4037,157.8822 225.1291,196.7246 242.2857,224.8128 " fill="none" id="User-Login" style="stroke: #A80036; stroke-width: 1.0;"/><!--
@startuml

class User {
    gender
    name
    location
    email
    login
    phone
    avatar
}

class Name {
    title
    first
    last
}

User - - Name

class Location {
    street
    city
    state
    postcode
    country
}

User - - Location

class Street {
    name
    number
}

Location - - Street

class Login {
    username
    password
}

User - - Login

@enduml

PlantUML version 1.2017.15(Mon Jul 03 18:45:34 CEST 2017)
(GPL source distribution)
Java Runtime: OpenJDK Runtime Environment
JVM: OpenJDK 64-Bit Server VM
Java Version: 11.0.4+11-post-Ubuntu-1ubuntu218.04.3
Operating System: Linux
OS Version: 4.15.0-65-generic
Default Encoding: UTF-8
Language: en
Country: US
--></g></svg>