<?xml version="1.0" encoding="UTF-8" standalone="no"?><svg xmlns="http://www.w3.org/2000/svg" xmlns:xlink="http://www.w3.org/1999/xlink" contentScriptType="application/ecmascript" contentStyleType="text/css" height="500px" preserveAspectRatio="none" style="width:456px;height:500px;" version="1.1" viewBox="0 0 456 500" width="456px" zoomAndPan="magnify"><defs><filter height="300%" id="fcynjiqhayev3" width="300%" x="-1" y="-1"><feGaussianBlur result="blurOut" stdDeviation="2.0"/><feColorMatrix in="blurOut" result="blurOut2" type="matrix" values="0 0 0 0 0 0 0 0 0 0 0 0 0 0 0 0 0 0 .4 0"/><feOffset dx="4.0" dy="4.0" in="blurOut2" result="blurOut3"/><feBlend in="SourceGraphic" in2="blurOut3" mode="normal"/></filter></defs><g><!--class User--><rect fill="#FEFECE" filter="url(#fcynjiqhayev3)" height="150.4375" id="User" style="stroke: #A80036; stroke-width: 1.5;" width="111" x="151.5" y="8"/><ellipse cx="189" cy="24" fill="#ADD1B2" rx="11" ry="11" style="stroke: #A80036; stroke-width: 1.0;"/><path d="M191.9688,29.6406 Q191.3906,29.9375 190.75,30.0781 Q190.1094,30.2344 189.4063,30.2344 Q186.9063,30.2344 185.5781,28.5938 Q184.2656,26.9375 184.2656,23.8125 Q184.2656,20.6875 185.5781,19.0313 Q186.9063,17.375 189.4063,17.375 Q190.1094,17.375 190.75,17.5313 Q191.4063,17.6875 191.9688,17.9844 L191.9688,20.7031 Q191.3438,20.125 190.75,19.8594 Q190.1563,19.5781 189.5313,19.5781 Q188.1875,19.5781 187.5,20.6563 Q186.8125,21.7188 186.8125,23.8125 Q186.8125,25.9063 187.5,26.9844 Q188.1875,28.0469 189.5313,28.0469 Q190.1563,28.0469 190.75,27.7813 Q191.3438,27.5 191.9688,26.9219 L191.9688,29.6406 Z "/><text fill="#000000" font-family="sans-serif" font-size="12" lengthAdjust="spacingAndGlyphs" textLength="29" x="208" y="28.1543">User</text><line style="stroke: #A80036; stroke-width: 1.5;" x1="152.5" x2="261.5" y1="40" y2="40"/><text fill="#000000" font-family="sans-serif" font-size="11" lengthAdjust="spacingAndGlyphs" textLength="82" x="157.5" y="54.2104">gender: String</text><text fill="#000000" font-family="sans-serif" font-size="11" lengthAdjust="spacingAndGlyphs" textLength="73" x="157.5" y="67.0151">name: Name</text><text fill="#000000" font-family="sans-serif" font-size="11" lengthAdjust="spacingAndGlyphs" textLength="99" x="157.5" y="79.8198">location: Location</text><text fill="#000000" font-family="sans-serif" font-size="11" lengthAdjust="spacingAndGlyphs" textLength="73" x="157.5" y="92.6245">email: String</text><text fill="#000000" font-family="sans-serif" font-size="11" lengthAdjust="spacingAndGlyphs" textLength="65" x="157.5" y="105.4292">login: Login</text><text fill="#000000" font-family="sans-serif" font-size="11" lengthAdjust="spacingAndGlyphs" textLength="77" x="157.5" y="118.2339">phone: String</text><text fill="#000000" font-family="sans-serif" font-size="11" lengthAdjust="spacingAndGlyphs" textLength="86" x="157.5" y="131.0386">picture: Picture</text><text fill="#000000" font-family="sans-serif" font-size="11" lengthAdjust="spacingAndGlyphs" textLength="60" x="157.5" y="143.8433">nat: String</text><line style="stroke: #A80036; stroke-width: 1.5;" x1="152.5" x2="261.5" y1="150.4375" y2="150.4375"/><!--class Picture--><rect fill="#FEFECE" filter="url(#fcynjiqhayev3)" height="86.4141" id="Picture" style="stroke: #A80036; stroke-width: 1.5;" width="76" x="6" y="244"/><ellipse cx="21" cy="260" fill="#ADD1B2" rx="11" ry="11" style="stroke: #A80036; stroke-width: 1.0;"/><path d="M23.9688,265.6406 Q23.3906,265.9375 22.75,266.0781 Q22.1094,266.2344 21.4063,266.2344 Q18.9063,266.2344 17.5781,264.5938 Q16.2656,262.9375 16.2656,259.8125 Q16.2656,256.6875 17.5781,255.0313 Q18.9063,253.375 21.4063,253.375 Q22.1094,253.375 22.75,253.5313 Q23.4063,253.6875 23.9688,253.9844 L23.9688,256.7031 Q23.3438,256.125 22.75,255.8594 Q22.1563,255.5781 21.5313,255.5781 Q20.1875,255.5781 19.5,256.6563 Q18.8125,257.7188 18.8125,259.8125 Q18.8125,261.9063 19.5,262.9844 Q20.1875,264.0469 21.5313,264.0469 Q22.1563,264.0469 22.75,263.7813 Q23.3438,263.5 23.9688,262.9219 L23.9688,265.6406 Z "/><text fill="#000000" font-family="sans-serif" font-size="12" lengthAdjust="spacingAndGlyphs" textLength="44" x="35" y="264.1543">Picture</text><line style="stroke: #A80036; stroke-width: 1.5;" x1="7" x2="81" y1="276" y2="276"/><text fill="#000000" font-family="sans-serif" font-size="11" lengthAdjust="spacingAndGlyphs" textLength="46" x="12" y="290.2104">medium</text><text fill="#000000" font-family="sans-serif" font-size="11" lengthAdjust="spacingAndGlyphs" textLength="29" x="12" y="303.0151">large</text><text fill="#000000" font-family="sans-serif" font-size="11" lengthAdjust="spacingAndGlyphs" textLength="56" x="12" y="315.8198">thumbnail</text><line style="stroke: #A80036; stroke-width: 1.5;" x1="7" x2="81" y1="322.4141" y2="322.4141"/><!--class Name--><rect fill="#FEFECE" filter="url(#fcynjiqhayev3)" height="86.4141" id="Name" style="stroke: #A80036; stroke-width: 1.5;" width="68" x="117" y="244"/><ellipse cx="132" cy="260" fill="#ADD1B2" rx="11" ry="11" style="stroke: #A80036; stroke-width: 1.0;"/><path d="M134.9688,265.6406 Q134.3906,265.9375 133.75,266.0781 Q133.1094,266.2344 132.4063,266.2344 Q129.9063,266.2344 128.5781,264.5938 Q127.2656,262.9375 127.2656,259.8125 Q127.2656,256.6875 128.5781,255.0313 Q129.9063,253.375 132.4063,253.375 Q133.1094,253.375 133.75,253.5313 Q134.4063,253.6875 134.9688,253.9844 L134.9688,256.7031 Q134.3438,256.125 133.75,255.8594 Q133.1563,255.5781 132.5313,255.5781 Q131.1875,255.5781 130.5,256.6563 Q129.8125,257.7188 129.8125,259.8125 Q129.8125,261.9063 130.5,262.9844 Q131.1875,264.0469 132.5313,264.0469 Q133.1563,264.0469 133.75,263.7813 Q134.3438,263.5 134.9688,262.9219 L134.9688,265.6406 Z "/><text fill="#000000" font-family="sans-serif" font-size="12" lengthAdjust="spacingAndGlyphs" textLength="36" x="146" y="264.1543">Name</text><line style="stroke: #A80036; stroke-width: 1.5;" x1="118" x2="184" y1="276" y2="276"/><text fill="#000000" font-family="sans-serif" font-size="11" lengthAdjust="spacingAndGlyphs" textLength="21" x="123" y="290.2104">title</text><text fill="#000000" font-family="sans-serif" font-size="11" lengthAdjust="spacingAndGlyphs" textLength="23" x="123" y="303.0151">first</text><text fill="#000000" font-family="sans-serif" font-size="11" lengthAdjust="spacingAndGlyphs" textLength="21" x="123" y="315.8198">last</text><line style="stroke: #A80036; stroke-width: 1.5;" x1="118" x2="184" y1="322.4141" y2="322.4141"/><!--class Location--><rect fill="#FEFECE" filter="url(#fcynjiqhayev3)" height="99.2188" id="Location" style="stroke: #A80036; stroke-width: 1.5;" width="85" x="220.5" y="237.5"/><ellipse cx="235.5" cy="253.5" fill="#ADD1B2" rx="11" ry="11" style="stroke: #A80036; stroke-width: 1.0;"/><path d="M238.4688,259.1406 Q237.8906,259.4375 237.25,259.5781 Q236.6094,259.7344 235.9063,259.7344 Q233.4063,259.7344 232.0781,258.0938 Q230.7656,256.4375 230.7656,253.3125 Q230.7656,250.1875 232.0781,248.5313 Q233.4063,246.875 235.9063,246.875 Q236.6094,246.875 237.25,247.0313 Q237.9063,247.1875 238.4688,247.4844 L238.4688,250.2031 Q237.8438,249.625 237.25,249.3594 Q236.6563,249.0781 236.0313,249.0781 Q234.6875,249.0781 234,250.1563 Q233.3125,251.2188 233.3125,253.3125 Q233.3125,255.4063 234,256.4844 Q234.6875,257.5469 236.0313,257.5469 Q236.6563,257.5469 237.25,257.2813 Q237.8438,257 238.4688,256.4219 L238.4688,259.1406 Z "/><text fill="#000000" font-family="sans-serif" font-size="12" lengthAdjust="spacingAndGlyphs" textLength="53" x="249.5" y="257.6543">Location</text><line style="stroke: #A80036; stroke-width: 1.5;" x1="221.5" x2="304.5" y1="269.5" y2="269.5"/><text fill="#000000" font-family="sans-serif" font-size="11" lengthAdjust="spacingAndGlyphs" textLength="19" x="226.5" y="283.7104">city</text><text fill="#000000" font-family="sans-serif" font-size="11" lengthAdjust="spacingAndGlyphs" textLength="29" x="226.5" y="296.5151">state</text><text fill="#000000" font-family="sans-serif" font-size="11" lengthAdjust="spacingAndGlyphs" textLength="52" x="226.5" y="309.3198">postcode</text><text fill="#000000" font-family="sans-serif" font-size="11" lengthAdjust="spacingAndGlyphs" textLength="42" x="226.5" y="322.1245">country</text><line style="stroke: #A80036; stroke-width: 1.5;" x1="221.5" x2="304.5" y1="328.7188" y2="328.7188"/><!--class Street--><rect fill="#FEFECE" filter="url(#fcynjiqhayev3)" height="73.6094" id="Street" style="stroke: #A80036; stroke-width: 1.5;" width="71" x="102.5" y="416"/><ellipse cx="117.5" cy="432" fill="#ADD1B2" rx="11" ry="11" style="stroke: #A80036; stroke-width: 1.0;"/><path d="M120.4688,437.6406 Q119.8906,437.9375 119.25,438.0781 Q118.6094,438.2344 117.9063,438.2344 Q115.4063,438.2344 114.0781,436.5938 Q112.7656,434.9375 112.7656,431.8125 Q112.7656,428.6875 114.0781,427.0313 Q115.4063,425.375 117.9063,425.375 Q118.6094,425.375 119.25,425.5313 Q119.9063,425.6875 120.4688,425.9844 L120.4688,428.7031 Q119.8438,428.125 119.25,427.8594 Q118.6563,427.5781 118.0313,427.5781 Q116.6875,427.5781 116,428.6563 Q115.3125,429.7188 115.3125,431.8125 Q115.3125,433.9063 116,434.9844 Q116.6875,436.0469 118.0313,436.0469 Q118.6563,436.0469 119.25,435.7813 Q119.8438,435.5 120.4688,434.9219 L120.4688,437.6406 Z "/><text fill="#000000" font-family="sans-serif" font-size="12" lengthAdjust="spacingAndGlyphs" textLength="39" x="131.5" y="436.1543">Street</text><line style="stroke: #A80036; stroke-width: 1.5;" x1="103.5" x2="172.5" y1="448" y2="448"/><text fill="#000000" font-family="sans-serif" font-size="11" lengthAdjust="spacingAndGlyphs" textLength="32" x="108.5" y="462.2104">name</text><text fill="#000000" font-family="sans-serif" font-size="11" lengthAdjust="spacingAndGlyphs" textLength="44" x="108.5" y="475.0151">number</text><line style="stroke: #A80036; stroke-width: 1.5;" x1="103.5" x2="172.5" y1="481.6094" y2="481.6094"/><!--class Coordinates--><rect fill="#FEFECE" filter="url(#fcynjiqhayev3)" height="73.6094" id="Coordinates" style="stroke: #A80036; stroke-width: 1.5;" width="108" x="209" y="416"/><ellipse cx="224" cy="432" fill="#ADD1B2" rx="11" ry="11" style="stroke: #A80036; stroke-width: 1.0;"/><path d="M226.9688,437.6406 Q226.3906,437.9375 225.75,438.0781 Q225.1094,438.2344 224.4063,438.2344 Q221.9063,438.2344 220.5781,436.5938 Q219.2656,434.9375 219.2656,431.8125 Q219.2656,428.6875 220.5781,427.0313 Q221.9063,425.375 224.4063,425.375 Q225.1094,425.375 225.75,425.5313 Q226.4063,425.6875 226.9688,425.9844 L226.9688,428.7031 Q226.3438,428.125 225.75,427.8594 Q225.1563,427.5781 224.5313,427.5781 Q223.1875,427.5781 222.5,428.6563 Q221.8125,429.7188 221.8125,431.8125 Q221.8125,433.9063 222.5,434.9844 Q223.1875,436.0469 224.5313,436.0469 Q225.1563,436.0469 225.75,435.7813 Q226.3438,435.5 226.9688,434.9219 L226.9688,437.6406 Z "/><text fill="#000000" font-family="sans-serif" font-size="12" lengthAdjust="spacingAndGlyphs" textLength="76" x="238" y="436.1543">Coordinates</text><line style="stroke: #A80036; stroke-width: 1.5;" x1="210" x2="316" y1="448" y2="448"/><text fill="#000000" font-family="sans-serif" font-size="11" lengthAdjust="spacingAndGlyphs" textLength="42" x="215" y="462.2104">latitude</text><text fill="#000000" font-family="sans-serif" font-size="11" lengthAdjust="spacingAndGlyphs" textLength="45" x="215" y="475.0151">lonitude</text><line style="stroke: #A80036; stroke-width: 1.5;" x1="210" x2="316" y1="481.6094" y2="481.6094"/><!--class Timezome--><rect fill="#FEFECE" filter="url(#fcynjiqhayev3)" height="73.6094" id="Timezome" style="stroke: #A80036; stroke-width: 1.5;" width="93" x="352.5" y="416"/><ellipse cx="367.5" cy="432" fill="#ADD1B2" rx="11" ry="11" style="stroke: #A80036; stroke-width: 1.0;"/><path d="M370.4688,437.6406 Q369.8906,437.9375 369.25,438.0781 Q368.6094,438.2344 367.9063,438.2344 Q365.4063,438.2344 364.0781,436.5938 Q362.7656,434.9375 362.7656,431.8125 Q362.7656,428.6875 364.0781,427.0313 Q365.4063,425.375 367.9063,425.375 Q368.6094,425.375 369.25,425.5313 Q369.9063,425.6875 370.4688,425.9844 L370.4688,428.7031 Q369.8438,428.125 369.25,427.8594 Q368.6563,427.5781 368.0313,427.5781 Q366.6875,427.5781 366,428.6563 Q365.3125,429.7188 365.3125,431.8125 Q365.3125,433.9063 366,434.9844 Q366.6875,436.0469 368.0313,436.0469 Q368.6563,436.0469 369.25,435.7813 Q369.8438,435.5 370.4688,434.9219 L370.4688,437.6406 Z "/><text fill="#000000" font-family="sans-serif" font-size="12" lengthAdjust="spacingAndGlyphs" textLength="61" x="381.5" y="436.1543">Timezome</text><line style="stroke: #A80036; stroke-width: 1.5;" x1="353.5" x2="444.5" y1="448" y2="448"/><text fill="#000000" font-family="sans-serif" font-size="11" lengthAdjust="spacingAndGlyphs" textLength="33" x="358.5" y="462.2104">offset</text><text fill="#000000" font-family="sans-serif" font-size="11" lengthAdjust="spacingAndGlyphs" textLength="63" x="358.5" y="475.0151">description</text><line style="stroke: #A80036; stroke-width: 1.5;" x1="353.5" x2="444.5" y1="481.6094" y2="481.6094"/><!--class Login--><rect fill="#FEFECE" filter="url(#fcynjiqhayev3)" height="137.6328" id="Login" style="stroke: #A80036; stroke-width: 1.5;" width="70" x="341" y="218"/><ellipse cx="358.25" cy="234" fill="#ADD1B2" rx="11" ry="11" style="stroke: #A80036; stroke-width: 1.0;"/><path d="M361.2188,239.6406 Q360.6406,239.9375 360,240.0781 Q359.3594,240.2344 358.6563,240.2344 Q356.1563,240.2344 354.8281,238.5938 Q353.5156,236.9375 353.5156,233.8125 Q353.5156,230.6875 354.8281,229.0313 Q356.1563,227.375 358.6563,227.375 Q359.3594,227.375 360,227.5313 Q360.6563,227.6875 361.2188,227.9844 L361.2188,230.7031 Q360.5938,230.125 360,229.8594 Q359.4063,229.5781 358.7813,229.5781 Q357.4375,229.5781 356.75,230.6563 Q356.0625,231.7188 356.0625,233.8125 Q356.0625,235.9063 356.75,236.9844 Q357.4375,238.0469 358.7813,238.0469 Q359.4063,238.0469 360,237.7813 Q360.5938,237.5 361.2188,236.9219 L361.2188,239.6406 Z "/><text fill="#000000" font-family="sans-serif" font-size="12" lengthAdjust="spacingAndGlyphs" textLength="33" x="372.75" y="238.1543">Login</text><line style="stroke: #A80036; stroke-width: 1.5;" x1="342" x2="410" y1="250" y2="250"/><text fill="#000000" font-family="sans-serif" font-size="11" lengthAdjust="spacingAndGlyphs" textLength="24" x="347" y="264.2104">uuid</text><text fill="#000000" font-family="sans-serif" font-size="11" lengthAdjust="spacingAndGlyphs" textLength="58" x="347" y="277.0151">username</text><text fill="#000000" font-family="sans-serif" font-size="11" lengthAdjust="spacingAndGlyphs" textLength="56" x="347" y="289.8198">password</text><text fill="#000000" font-family="sans-serif" font-size="11" lengthAdjust="spacingAndGlyphs" textLength="21" x="347" y="302.6245">salt</text><text fill="#000000" font-family="sans-serif" font-size="11" lengthAdjust="spacingAndGlyphs" textLength="25" x="347" y="315.4292">md5</text><text fill="#000000" font-family="sans-serif" font-size="11" lengthAdjust="spacingAndGlyphs" textLength="28" x="347" y="328.2339">sha1</text><text fill="#000000" font-family="sans-serif" font-size="11" lengthAdjust="spacingAndGlyphs" textLength="42" x="347" y="341.0386">sha256</text><line style="stroke: #A80036; stroke-width: 1.5;" x1="342" x2="410" y1="347.6328" y2="347.6328"/><!--link User to Name--><path d="M186.3862,158.093 C178.4649,186.9493 169.6941,218.8999 162.8663,243.7729 " fill="none" id="User-Name" style="stroke: #A80036; stroke-width: 1.0;"/><!--link User to Location--><path d="M227.6138,158.093 C234.8802,184.5635 242.8614,213.6379 249.4019,237.4642 " fill="none" id="User-Location" style="stroke: #A80036; stroke-width: 1.0;"/><!--link Location to Street--><path d="M225.4959,336.8055 C206.367,362.2086 183.498,392.5787 165.9382,415.8981 " fill="none" id="Location-Street" style="stroke: #A80036; stroke-width: 1.0;"/><!--link Location to Coordinates--><path d="M263,336.8055 C263,362.2086 263,392.5787 263,415.8981 " fill="none" id="Location-Coordinates" style="stroke: #A80036; stroke-width: 1.0;"/><!--link Location to Timezome--><path d="M303.8045,336.8055 C324.6167,362.2086 349.4982,392.5787 368.6033,415.8981 " fill="none" id="Location-Timezome" style="stroke: #A80036; stroke-width: 1.0;"/><!--link User to Picture--><path d="M151.4789,152.3532 C134.617,173.4289 116.0436,196.6568 99,218 C92.3086,226.3795 85.1642,235.3355 78.315,243.9261 " fill="none" id="User-Picture" style="stroke: #A80036; stroke-width: 1.0;"/><!--link User to Login--><path d="M262.6038,146.2589 C281.9871,168.6906 303.7063,194.2589 323,218 C328.9064,225.2679 335.0606,233.0625 340.9961,240.7025 " fill="none" id="User-Login" style="stroke: #A80036; stroke-width: 1.0;"/><!--
@startuml

class User {
    gender: String
    name: Name
    location: Location
    email: String
    login: Login
    phone: String
    picture: Picture
    nat: String
}


class Picture {
    medium
    large
    thumbnail
}

class Name {
    title
    first
    last
}

User - - Name

class Location {
    city
    state
    postcode
    country
}

User - - Location

class Street {
    name
    number
}

Location - - Street

class Coordinates {
    latitude
    lonitude
}

Location - - Coordinates

class Timezome {
    offset
    description
}

Location - - Timezome

User - -  Picture

class Login {
    uuid
    username
    password
    salt
    md5
    sha1
    sha256
}

User - - Login

@enduml

PlantUML version 1.2019.09(Mon Aug 26 18:19:51 CEST 2019)
(GPL source distribution)
Java Runtime: OpenJDK Runtime Environment
JVM: OpenJDK 64-Bit Server VM
Java Version: 11.0.4+11-post-Ubuntu-1ubuntu218.04.3
Operating System: Linux
OS Version: 4.15.0-65-generic
Default Encoding: UTF-8
Language: en
Country: US
--></g></svg>