<?xml version="1.0" encoding="UTF-8" standalone="no"?><svg xmlns="http://www.w3.org/2000/svg" xmlns:xlink="http://www.w3.org/1999/xlink" contentScriptType="application/ecmascript" contentStyleType="text/css" height="461px" preserveAspectRatio="none" style="width:360px;height:461px;" version="1.1" viewBox="0 0 360 461" width="360px" zoomAndPan="magnify"><defs><filter height="300%" id="f1vjx55v3oqvgv" width="300%" x="-1" y="-1"><feGaussianBlur result="blurOut" stdDeviation="2.0"/><feColorMatrix in="blurOut" result="blurOut2" type="matrix" values="0 0 0 0 0 0 0 0 0 0 0 0 0 0 0 0 0 0 .4 0"/><feOffset dx="4.0" dy="4.0" in="blurOut2" result="blurOut3"/><feBlend in="SourceGraphic" in2="blurOut3" mode="normal"/></filter></defs><g><!--class User--><rect fill="#FEFECE" filter="url(#f1vjx55v3oqvgv)" height="150.4375" id="User" style="stroke: #A80036; stroke-width: 1.5;" width="111" x="111" y="8"/><ellipse cx="148.5" cy="24" fill="#ADD1B2" rx="11" ry="11" style="stroke: #A80036; stroke-width: 1.0;"/><path d="M151.4688,29.6406 Q150.8906,29.9375 150.25,30.0781 Q149.6094,30.2344 148.9063,30.2344 Q146.4063,30.2344 145.0781,28.5938 Q143.7656,26.9375 143.7656,23.8125 Q143.7656,20.6875 145.0781,19.0313 Q146.4063,17.375 148.9063,17.375 Q149.6094,17.375 150.25,17.5313 Q150.9063,17.6875 151.4688,17.9844 L151.4688,20.7031 Q150.8438,20.125 150.25,19.8594 Q149.6563,19.5781 149.0313,19.5781 Q147.6875,19.5781 147,20.6563 Q146.3125,21.7188 146.3125,23.8125 Q146.3125,25.9063 147,26.9844 Q147.6875,28.0469 149.0313,28.0469 Q149.6563,28.0469 150.25,27.7813 Q150.8438,27.5 151.4688,26.9219 L151.4688,29.6406 Z "/><text fill="#000000" font-family="sans-serif" font-size="12" lengthAdjust="spacingAndGlyphs" textLength="29" x="167.5" y="28.1543">User</text><line style="stroke: #A80036; stroke-width: 1.5;" x1="112" x2="221" y1="40" y2="40"/><text fill="#000000" font-family="sans-serif" font-size="11" lengthAdjust="spacingAndGlyphs" textLength="82" x="117" y="54.2104">gender: String</text><text fill="#000000" font-family="sans-serif" font-size="11" lengthAdjust="spacingAndGlyphs" textLength="73" x="117" y="67.0151">name: Name</text><text fill="#000000" font-family="sans-serif" font-size="11" lengthAdjust="spacingAndGlyphs" textLength="99" x="117" y="79.8198">location: Location</text><text fill="#000000" font-family="sans-serif" font-size="11" lengthAdjust="spacingAndGlyphs" textLength="73" x="117" y="92.6245">email: String</text><text fill="#000000" font-family="sans-serif" font-size="11" lengthAdjust="spacingAndGlyphs" textLength="65" x="117" y="105.4292">login: Login</text><text fill="#000000" font-family="sans-serif" font-size="11" lengthAdjust="spacingAndGlyphs" textLength="77" x="117" y="118.2339">phone: String</text><text fill="#000000" font-family="sans-serif" font-size="11" lengthAdjust="spacingAndGlyphs" textLength="86" x="117" y="131.0386">picture: Picture</text><text fill="#000000" font-family="sans-serif" font-size="11" lengthAdjust="spacingAndGlyphs" textLength="60" x="117" y="143.8433">nat: String</text><line style="stroke: #A80036; stroke-width: 1.5;" x1="112" x2="221" y1="150.4375" y2="150.4375"/><!--class Name--><rect fill="#FEFECE" filter="url(#f1vjx55v3oqvgv)" height="86.4141" id="Name" style="stroke: #A80036; stroke-width: 1.5;" width="68" x="20.5" y="224.5"/><ellipse cx="35.5" cy="240.5" fill="#ADD1B2" rx="11" ry="11" style="stroke: #A80036; stroke-width: 1.0;"/><path d="M38.4688,246.1406 Q37.8906,246.4375 37.25,246.5781 Q36.6094,246.7344 35.9063,246.7344 Q33.4063,246.7344 32.0781,245.0938 Q30.7656,243.4375 30.7656,240.3125 Q30.7656,237.1875 32.0781,235.5313 Q33.4063,233.875 35.9063,233.875 Q36.6094,233.875 37.25,234.0313 Q37.9063,234.1875 38.4688,234.4844 L38.4688,237.2031 Q37.8438,236.625 37.25,236.3594 Q36.6563,236.0781 36.0313,236.0781 Q34.6875,236.0781 34,237.1563 Q33.3125,238.2188 33.3125,240.3125 Q33.3125,242.4063 34,243.4844 Q34.6875,244.5469 36.0313,244.5469 Q36.6563,244.5469 37.25,244.2813 Q37.8438,244 38.4688,243.4219 L38.4688,246.1406 Z "/><text fill="#000000" font-family="sans-serif" font-size="12" lengthAdjust="spacingAndGlyphs" textLength="36" x="49.5" y="244.6543">Name</text><line style="stroke: #A80036; stroke-width: 1.5;" x1="21.5" x2="87.5" y1="256.5" y2="256.5"/><text fill="#000000" font-family="sans-serif" font-size="11" lengthAdjust="spacingAndGlyphs" textLength="21" x="26.5" y="270.7104">title</text><text fill="#000000" font-family="sans-serif" font-size="11" lengthAdjust="spacingAndGlyphs" textLength="23" x="26.5" y="283.5151">first</text><text fill="#000000" font-family="sans-serif" font-size="11" lengthAdjust="spacingAndGlyphs" textLength="21" x="26.5" y="296.3198">last</text><line style="stroke: #A80036; stroke-width: 1.5;" x1="21.5" x2="87.5" y1="302.9141" y2="302.9141"/><!--class Location--><rect fill="#FEFECE" filter="url(#f1vjx55v3oqvgv)" height="99.2188" id="Location" style="stroke: #A80036; stroke-width: 1.5;" width="85" x="124" y="218"/><ellipse cx="139" cy="234" fill="#ADD1B2" rx="11" ry="11" style="stroke: #A80036; stroke-width: 1.0;"/><path d="M141.9688,239.6406 Q141.3906,239.9375 140.75,240.0781 Q140.1094,240.2344 139.4063,240.2344 Q136.9063,240.2344 135.5781,238.5938 Q134.2656,236.9375 134.2656,233.8125 Q134.2656,230.6875 135.5781,229.0313 Q136.9063,227.375 139.4063,227.375 Q140.1094,227.375 140.75,227.5313 Q141.4063,227.6875 141.9688,227.9844 L141.9688,230.7031 Q141.3438,230.125 140.75,229.8594 Q140.1563,229.5781 139.5313,229.5781 Q138.1875,229.5781 137.5,230.6563 Q136.8125,231.7188 136.8125,233.8125 Q136.8125,235.9063 137.5,236.9844 Q138.1875,238.0469 139.5313,238.0469 Q140.1563,238.0469 140.75,237.7813 Q141.3438,237.5 141.9688,236.9219 L141.9688,239.6406 Z "/><text fill="#000000" font-family="sans-serif" font-size="12" lengthAdjust="spacingAndGlyphs" textLength="53" x="153" y="238.1543">Location</text><line style="stroke: #A80036; stroke-width: 1.5;" x1="125" x2="208" y1="250" y2="250"/><text fill="#000000" font-family="sans-serif" font-size="11" lengthAdjust="spacingAndGlyphs" textLength="19" x="130" y="264.2104">city</text><text fill="#000000" font-family="sans-serif" font-size="11" lengthAdjust="spacingAndGlyphs" textLength="29" x="130" y="277.0151">state</text><text fill="#000000" font-family="sans-serif" font-size="11" lengthAdjust="spacingAndGlyphs" textLength="52" x="130" y="289.8198">postcode</text><text fill="#000000" font-family="sans-serif" font-size="11" lengthAdjust="spacingAndGlyphs" textLength="42" x="130" y="302.6245">country</text><line style="stroke: #A80036; stroke-width: 1.5;" x1="125" x2="208" y1="309.2188" y2="309.2188"/><!--class Picture--><rect fill="#FEFECE" filter="url(#f1vjx55v3oqvgv)" height="86.4141" id="Picture" style="stroke: #A80036; stroke-width: 1.5;" width="76" x="244.5" y="224.5"/><ellipse cx="259.5" cy="240.5" fill="#ADD1B2" rx="11" ry="11" style="stroke: #A80036; stroke-width: 1.0;"/><path d="M262.4688,246.1406 Q261.8906,246.4375 261.25,246.5781 Q260.6094,246.7344 259.9063,246.7344 Q257.4063,246.7344 256.0781,245.0938 Q254.7656,243.4375 254.7656,240.3125 Q254.7656,237.1875 256.0781,235.5313 Q257.4063,233.875 259.9063,233.875 Q260.6094,233.875 261.25,234.0313 Q261.9063,234.1875 262.4688,234.4844 L262.4688,237.2031 Q261.8438,236.625 261.25,236.3594 Q260.6563,236.0781 260.0313,236.0781 Q258.6875,236.0781 258,237.1563 Q257.3125,238.2188 257.3125,240.3125 Q257.3125,242.4063 258,243.4844 Q258.6875,244.5469 260.0313,244.5469 Q260.6563,244.5469 261.25,244.2813 Q261.8438,244 262.4688,243.4219 L262.4688,246.1406 Z "/><text fill="#000000" font-family="sans-serif" font-size="12" lengthAdjust="spacingAndGlyphs" textLength="44" x="273.5" y="244.6543">Picture</text><line style="stroke: #A80036; stroke-width: 1.5;" x1="245.5" x2="319.5" y1="256.5" y2="256.5"/><text fill="#000000" font-family="sans-serif" font-size="11" lengthAdjust="spacingAndGlyphs" textLength="46" x="250.5" y="270.7104">medium</text><text fill="#000000" font-family="sans-serif" font-size="11" lengthAdjust="spacingAndGlyphs" textLength="29" x="250.5" y="283.5151">large</text><text fill="#000000" font-family="sans-serif" font-size="11" lengthAdjust="spacingAndGlyphs" textLength="56" x="250.5" y="296.3198">thumbnail</text><line style="stroke: #A80036; stroke-width: 1.5;" x1="245.5" x2="319.5" y1="302.9141" y2="302.9141"/><!--class Street--><rect fill="#FEFECE" filter="url(#f1vjx55v3oqvgv)" height="73.6094" id="Street" style="stroke: #A80036; stroke-width: 1.5;" width="71" x="6" y="377"/><ellipse cx="21" cy="393" fill="#ADD1B2" rx="11" ry="11" style="stroke: #A80036; stroke-width: 1.0;"/><path d="M23.9688,398.6406 Q23.3906,398.9375 22.75,399.0781 Q22.1094,399.2344 21.4063,399.2344 Q18.9063,399.2344 17.5781,397.5938 Q16.2656,395.9375 16.2656,392.8125 Q16.2656,389.6875 17.5781,388.0313 Q18.9063,386.375 21.4063,386.375 Q22.1094,386.375 22.75,386.5313 Q23.4063,386.6875 23.9688,386.9844 L23.9688,389.7031 Q23.3438,389.125 22.75,388.8594 Q22.1563,388.5781 21.5313,388.5781 Q20.1875,388.5781 19.5,389.6563 Q18.8125,390.7188 18.8125,392.8125 Q18.8125,394.9063 19.5,395.9844 Q20.1875,397.0469 21.5313,397.0469 Q22.1563,397.0469 22.75,396.7813 Q23.3438,396.5 23.9688,395.9219 L23.9688,398.6406 Z "/><text fill="#000000" font-family="sans-serif" font-size="12" lengthAdjust="spacingAndGlyphs" textLength="39" x="35" y="397.1543">Street</text><line style="stroke: #A80036; stroke-width: 1.5;" x1="7" x2="76" y1="409" y2="409"/><text fill="#000000" font-family="sans-serif" font-size="11" lengthAdjust="spacingAndGlyphs" textLength="32" x="12" y="423.2104">name</text><text fill="#000000" font-family="sans-serif" font-size="11" lengthAdjust="spacingAndGlyphs" textLength="44" x="12" y="436.0151">number</text><line style="stroke: #A80036; stroke-width: 1.5;" x1="7" x2="76" y1="442.6094" y2="442.6094"/><!--class Coordinates--><rect fill="#FEFECE" filter="url(#f1vjx55v3oqvgv)" height="73.6094" id="Coordinates" style="stroke: #A80036; stroke-width: 1.5;" width="108" x="112.5" y="377"/><ellipse cx="127.5" cy="393" fill="#ADD1B2" rx="11" ry="11" style="stroke: #A80036; stroke-width: 1.0;"/><path d="M130.4688,398.6406 Q129.8906,398.9375 129.25,399.0781 Q128.6094,399.2344 127.9063,399.2344 Q125.4063,399.2344 124.0781,397.5938 Q122.7656,395.9375 122.7656,392.8125 Q122.7656,389.6875 124.0781,388.0313 Q125.4063,386.375 127.9063,386.375 Q128.6094,386.375 129.25,386.5313 Q129.9063,386.6875 130.4688,386.9844 L130.4688,389.7031 Q129.8438,389.125 129.25,388.8594 Q128.6563,388.5781 128.0313,388.5781 Q126.6875,388.5781 126,389.6563 Q125.3125,390.7188 125.3125,392.8125 Q125.3125,394.9063 126,395.9844 Q126.6875,397.0469 128.0313,397.0469 Q128.6563,397.0469 129.25,396.7813 Q129.8438,396.5 130.4688,395.9219 L130.4688,398.6406 Z "/><text fill="#000000" font-family="sans-serif" font-size="12" lengthAdjust="spacingAndGlyphs" textLength="76" x="141.5" y="397.1543">Coordinates</text><line style="stroke: #A80036; stroke-width: 1.5;" x1="113.5" x2="219.5" y1="409" y2="409"/><text fill="#000000" font-family="sans-serif" font-size="11" lengthAdjust="spacingAndGlyphs" textLength="42" x="118.5" y="423.2104">latitude</text><text fill="#000000" font-family="sans-serif" font-size="11" lengthAdjust="spacingAndGlyphs" textLength="45" x="118.5" y="436.0151">lonitude</text><line style="stroke: #A80036; stroke-width: 1.5;" x1="113.5" x2="219.5" y1="442.6094" y2="442.6094"/><!--class Timezome--><rect fill="#FEFECE" filter="url(#f1vjx55v3oqvgv)" height="73.6094" id="Timezome" style="stroke: #A80036; stroke-width: 1.5;" width="93" x="256" y="377"/><ellipse cx="271" cy="393" fill="#ADD1B2" rx="11" ry="11" style="stroke: #A80036; stroke-width: 1.0;"/><path d="M273.9688,398.6406 Q273.3906,398.9375 272.75,399.0781 Q272.1094,399.2344 271.4063,399.2344 Q268.9063,399.2344 267.5781,397.5938 Q266.2656,395.9375 266.2656,392.8125 Q266.2656,389.6875 267.5781,388.0313 Q268.9063,386.375 271.4063,386.375 Q272.1094,386.375 272.75,386.5313 Q273.4063,386.6875 273.9688,386.9844 L273.9688,389.7031 Q273.3438,389.125 272.75,388.8594 Q272.1563,388.5781 271.5313,388.5781 Q270.1875,388.5781 269.5,389.6563 Q268.8125,390.7188 268.8125,392.8125 Q268.8125,394.9063 269.5,395.9844 Q270.1875,397.0469 271.5313,397.0469 Q272.1563,397.0469 272.75,396.7813 Q273.3438,396.5 273.9688,395.9219 L273.9688,398.6406 Z "/><text fill="#000000" font-family="sans-serif" font-size="12" lengthAdjust="spacingAndGlyphs" textLength="61" x="285" y="397.1543">Timezome</text><line style="stroke: #A80036; stroke-width: 1.5;" x1="257" x2="348" y1="409" y2="409"/><text fill="#000000" font-family="sans-serif" font-size="11" lengthAdjust="spacingAndGlyphs" textLength="33" x="262" y="423.2104">offset</text><text fill="#000000" font-family="sans-serif" font-size="11" lengthAdjust="spacingAndGlyphs" textLength="63" x="262" y="436.0151">description</text><line style="stroke: #A80036; stroke-width: 1.5;" x1="257" x2="348" y1="442.6094" y2="442.6094"/><!--link User to Name--><path d="M120.9453,158.0432 C107.2583,180.5902 92.7082,204.5589 80.7237,224.3012 " fill="none" id="User-Name" style="stroke: #A80036; stroke-width: 1.0;"/><!--link User to Location--><path d="M166.5,158.0432 C166.5,178.1958 166.5,199.4842 166.5,217.8754 " fill="none" id="User-Location" style="stroke: #A80036; stroke-width: 1.0;"/><!--link User to Picture--><path d="M213.6816,158.0432 C227.8575,180.5902 242.9273,204.5589 255.3398,224.3012 " fill="none" id="User-Picture" style="stroke: #A80036; stroke-width: 1.0;"/><!--link Location to Street--><path d="M124.1807,317.0982 C107.4655,336.6884 88.593,358.807 73.1033,376.9609 " fill="none" id="Location-Street" style="stroke: #A80036; stroke-width: 1.0;"/><!--link Location to Coordinates--><path d="M166.5,317.0982 C166.5,336.6884 166.5,358.807 166.5,376.9609 " fill="none" id="Location-Coordinates" style="stroke: #A80036; stroke-width: 1.0;"/><!--link Location to Timezome--><path d="M209.1581,313.4516 C228.0097,333.7586 249.8936,357.3321 267.7318,376.5475 " fill="none" id="Location-Timezome" style="stroke: #A80036; stroke-width: 1.0;"/><!--
@startuml

class User {
    gender: String
    name: Name
    location: Location
    email: String
    login: Login
    phone: String
    picture: Picture
    nat: String
}

class Name {
    title
    first
    last
}

User - - Name

class Location {
    city
    state
    postcode
    country
}

User - - Location

class Picture {
    medium
    large
    thumbnail
}

User - -  Picture

class Street {
    name
    number
}

Location - - Street

class Coordinates {
    latitude
    lonitude
}

Location - - Coordinates

class Timezome {
    offset
    description
}

Location - - Timezome

@enduml

PlantUML version 1.2017.15(Mon Jul 03 18:45:34 CEST 2017)
(GPL source distribution)
Java Runtime: OpenJDK Runtime Environment
JVM: OpenJDK 64-Bit Server VM
Java Version: 11.0.4+11-post-Ubuntu-1ubuntu218.04.3
Operating System: Linux
OS Version: 4.15.0-65-generic
Default Encoding: UTF-8
Language: en
Country: US
--></g></svg>